<svg
   xmlns:svg="http://www.w3.org/2000/svg"
   xmlns="http://www.w3.org/2000/svg"
   version="1.1"
   width="664.2135"
   height="150.37209"
   id="svg3361">
  <defs
     id="defs3363" />
  <g
     transform="translate(-16.464666,-437.17614)"
     id="layer1">
    <path
       d="m 127.42714,438.17614 c -20.44972,0.74271 -37.638575,11.92912 -47.344393,28.94383 l -62.618081,116.69732 47.38449,-0.04 11.104486,-25.25569 35.438138,0 -1.363,25.29578 47.42457,0 -5.49211,-145.64114 -24.5341,0 z m 75.16575,0 -36.44036,145.64115 41.09061,0 36.56062,-145.64115 -41.21087,0 z m 60.65374,1.44319 -29.62532,117.41891 c -3.15651,11.84109 -2.20708,19.47656 2.80618,22.97065 4.46468,3.42658 12.95462,5.04904 25.49622,4.93087 7.22451,0 14.9718,-0.35023 23.25127,-1.04229 l 6.17362,-24.49401 -6.85512,0 c -6.84471,0.0844 -9.59593,-2.8103 -8.17803,-8.6591 l 13.1089,-52.59597 17.23802,0 6.13352,-24.73455 -17.11775,0 8.73928,-33.79451 -41.17079,0 z m -146.96406,30.22665 -3.36743,60.73392 -24.694449,0 28.061879,-60.73392 z m 471.68008,0.52115 c -15.07355,0 -26.79998,5.4961 -35.19762,16.47633 l -0.48106,0 3.28725,-13.4697 -41.53158,0 -27.70108,110.40344 41.21087,0 18.28031,-72.84062 c 2.26187,-8.84495 7.37188,-13.20386 15.31377,-13.06881 7.87436,-0.13505 10.62136,4.24707 8.25821,13.1089 l -18.28031,72.80053 41.09061,0 18.2803,-72.84062 c 2.30408,-8.84495 7.52169,-13.20386 15.67457,-13.06881 7.95033,-0.13505 10.68044,4.22386 8.25821,13.06881 l -18.20013,72.84062 18.16004,0 c 12.88763,0 25.1438,-8.52382 28.02179,-20.20455 l 15.83492,-63.09914 c 2.75982,-11.57101 1.54246,-19.60946 -3.64805,-24.13321 -5.3593,-4.05112 -12.89561,-6.02381 -22.60985,-5.97317 -6.54088,0 -12.93787,1.27855 -19.24243,3.76831 -6.524,2.59103 -12.29438,7.0069 -17.35828,13.26925 -1.01278,-5.72221 -3.6142,-10.01571 -7.81724,-12.86837 -4.279,-2.77671 -10.81735,-4.16919 -19.60322,-4.16919 z m -259.97326,3.0868 -27.58081,110.36336 41.05051,0 27.70109,-110.36336 -41.17079,0 z m 59.85198,0 -20.84597,83.38387 c -2.68387,11.52038 -1.29771,19.41957 4.12911,23.57198 5.08078,4.24523 12.34703,6.25168 21.80809,6.13352 14.98914,0 26.62063,-5.3252 34.91699,-16.03536 l 0.48106,0 -3.24716,13.34944 41.05052,0 27.58082,-110.40345 -41.1307,0 -18.28031,72.84062 c -2.27875,8.84495 -7.3993,13.23339 -15.43403,13.14899 -7.76466,0.0844 -10.46945,-4.30404 -8.09786,-13.14899 l 18.24022,-72.84062 -41.17078,0 z"
       id="path278"
       style="fill:#000000;fill-opacity:1;fill-rule:nonzero;stroke:none" />
  </g>
</svg>
